<?xml version="1.0" encoding="UTF-8"?>
<svg xmlns="http://www.w3.org/2000/svg" xmlns:xlink="http://www.w3.org/1999/xlink" width="120px" height="120px" viewBox="0 0 120 120" version="1.1">
<g id="surface1">
<path style=" stroke:none;fill-rule:nonzero;fill:rgb(0%,0%,0%);fill-opacity:1;" d="M 48.167969 32.328125 C 47.832031 32.664062 48.019531 32.832031 48.90625 32.980469 C 50.042969 33.144531 50.855469 33.957031 51.144531 35.207031 C 51.410156 36.410156 51.410156 51.9375 51.125 53.160156 C 50.855469 54.316406 50.253906 54.839844 48.980469 55.050781 C 48.429688 55.128906 48 55.316406 48 55.441406 C 48 55.582031 51.671875 55.683594 58.273438 55.683594 L 68.542969 55.683594 L 68.832031 53.808594 C 69 52.796875 69.191406 51.550781 69.265625 51.050781 C 69.480469 49.75 69 49.917969 68.378906 51.359375 C 67.726562 52.871094 66.652344 53.832031 64.988281 54.386719 C 63.9375 54.746094 62.875 54.8125 58.917969 54.8125 L 54.125 54.839844 L 54.125 45 C 54.125 35.542969 54.144531 35.136719 54.601562 34.316406 C 54.980469 33.695312 55.367188 33.386719 56.234375 33.125 C 56.855469 32.925781 57.359375 32.613281 57.359375 32.449219 C 57.359375 32.234375 56.304688 32.160156 52.84375 32.160156 C 50.347656 32.160156 48.242188 32.234375 48.167969 32.328125 Z M 48.167969 32.328125 "/>
<path style=" stroke:none;fill-rule:nonzero;fill:rgb(0%,0%,0%);fill-opacity:1;" d="M 55.84375 37.84375 C 55.75 37.917969 55.683594 38.136719 55.683594 38.328125 C 55.683594 38.570312 56.328125 38.640625 58.558594 38.640625 L 61.441406 38.640625 L 61.441406 53.757812 L 64.316406 53.757812 L 64.316406 38.589844 L 66.90625 38.664062 C 70.367188 38.78125 71.570312 39.359375 72.550781 41.28125 C 73.488281 43.128906 73.796875 43.128906 73.609375 41.28125 C 73.511719 40.441406 73.441406 39.285156 73.441406 38.734375 L 73.441406 37.683594 L 64.726562 37.683594 C 59.925781 37.683594 55.917969 37.75 55.84375 37.84375 Z M 55.84375 37.84375 "/>
<path style=" stroke:none;fill-rule:nonzero;fill:rgb(0%,0%,0%);fill-opacity:1;" d="M 61.316406 58.128906 C 61.105469 59.570312 60.242188 60.652344 59.0625 60.863281 C 57.265625 61.222656 58.652344 61.441406 62.875 61.441406 C 65.398438 61.441406 67.441406 61.347656 67.441406 61.222656 C 67.441406 61.105469 66.957031 60.886719 66.359375 60.746094 C 65.019531 60.410156 64.316406 59.425781 64.316406 57.886719 L 64.316406 56.875 L 61.488281 56.875 Z M 61.316406 58.128906 "/>
<path style=" stroke:none;fill-rule:nonzero;fill:rgb(0%,0%,0%);fill-opacity:1;" d="M 76.894531 69.457031 C 76.609375 69.9375 76.296875 70.082031 75.652344 70.082031 C 74.855469 70.082031 74.808594 70.105469 75.265625 70.417969 C 75.671875 70.726562 75.71875 71.0625 75.695312 73.84375 C 75.695312 75.792969 75.574219 77.113281 75.410156 77.449219 C 74.640625 78.839844 72.265625 79.082031 71.0625 77.90625 C 70.460938 77.28125 70.441406 77.234375 70.511719 73.988281 C 70.558594 71.234375 70.652344 70.652344 70.988281 70.417969 C 71.328125 70.15625 71.160156 70.105469 69.746094 70.082031 C 68.1875 70.082031 68.113281 70.105469 68.472656 70.488281 C 68.757812 70.824219 68.855469 71.640625 68.925781 74.09375 C 69 76.824219 69.074219 77.328125 69.503906 77.925781 C 70.511719 79.316406 72.746094 79.84375 74.519531 79.105469 C 75.9375 78.503906 76.175781 77.832031 76.316406 74.207031 C 76.417969 71.449219 76.511719 70.949219 76.871094 70.777344 C 77.09375 70.652344 77.472656 70.460938 77.714844 70.347656 C 78.242188 70.082031 78.265625 69.019531 77.714844 68.925781 C 77.496094 68.875 77.136719 69.125 76.894531 69.457031 Z M 76.894531 69.457031 "/>
<path style=" stroke:none;fill-rule:nonzero;fill:rgb(0%,0%,0%);fill-opacity:1;" d="M 81 70.296875 C 77.378906 71.925781 77.378906 77.347656 81 78.980469 C 83.234375 80.019531 86.234375 79.105469 87.359375 77.042969 C 88.25 75.429688 88.175781 73.316406 87.21875 71.949219 C 85.84375 70.011719 83.1875 69.285156 81 70.296875 Z M 85.128906 71.328125 C 86.589844 72.792969 86.808594 76.222656 85.539062 77.757812 C 84.191406 79.347656 82.105469 79.175781 80.734375 77.398438 C 79.796875 76.15625 79.632812 73.75 80.378906 72.265625 C 81.457031 70.175781 83.542969 69.765625 85.128906 71.328125 Z M 85.128906 71.328125 "/>
<path style=" stroke:none;fill-rule:nonzero;fill:rgb(0%,0%,0%);fill-opacity:1;" d="M 101.875 70.175781 C 99.335938 71.28125 98.425781 75.144531 100.105469 77.664062 C 101.304688 79.441406 103.949219 79.988281 106.082031 78.886719 C 107.113281 78.386719 107.160156 78.316406 107.28125 77.09375 C 107.347656 76.347656 107.570312 75.71875 107.757812 75.601562 C 108 75.429688 107.542969 75.359375 106.390625 75.359375 C 104.542969 75.359375 104.28125 75.480469 105.242188 75.839844 C 105.765625 76.03125 105.839844 76.222656 105.839844 77.160156 C 105.839844 78.191406 105.792969 78.285156 105 78.621094 C 103.460938 79.25 102.074219 78.574219 101.304688 76.796875 C 99.71875 73.128906 102.191406 69.167969 105.09375 70.652344 C 105.8125 71.042969 106.558594 72 106.558594 72.574219 C 106.558594 72.765625 106.683594 73.011719 106.796875 73.082031 C 106.949219 73.175781 107.042969 72.71875 107.042969 71.925781 C 107.042969 70.609375 107.042969 70.609375 106.082031 70.222656 C 104.925781 69.765625 102.886719 69.746094 101.875 70.175781 Z M 101.875 70.175781 "/>
<path style=" stroke:none;fill-rule:nonzero;fill:rgb(0%,0%,0%);fill-opacity:1;" d="M 12.90625 70.460938 C 13.417969 70.824219 13.441406 70.96875 13.441406 74.640625 C 13.441406 78.316406 13.417969 78.457031 12.90625 78.839844 C 12.410156 79.175781 12.574219 79.203125 15.601562 79.15625 L 18.8125 79.082031 L 19.011719 78.125 C 19.316406 76.632812 19.15625 76.316406 18.550781 77.304688 C 17.925781 78.316406 17.136719 78.71875 15.839844 78.71875 L 14.875 78.71875 L 14.875 74.78125 C 14.875 70.96875 14.90625 70.824219 15.410156 70.460938 C 15.90625 70.105469 15.839844 70.082031 14.160156 70.082031 C 12.480469 70.082031 12.410156 70.105469 12.90625 70.460938 Z M 12.90625 70.460938 "/>
<path style=" stroke:none;fill-rule:nonzero;fill:rgb(0%,0%,0%);fill-opacity:1;" d="M 20.589844 70.367188 C 21.191406 70.683594 21.191406 70.683594 21.125 75.480469 C 21.074219 78.050781 21 78.621094 20.683594 78.886719 C 20.347656 79.128906 20.542969 79.175781 21.90625 79.203125 L 23.542969 79.203125 L 23.042969 78.527344 C 22.558594 77.875 22.539062 77.589844 22.609375 74.328125 C 22.683594 71.160156 22.726562 70.777344 23.160156 70.460938 C 23.589844 70.128906 23.496094 70.105469 21.839844 70.105469 C 20.378906 70.105469 20.136719 70.15625 20.589844 70.367188 Z M 20.589844 70.367188 "/>
<path style=" stroke:none;fill-rule:nonzero;fill:rgb(0%,0%,0%);fill-opacity:1;" d="M 25.15625 70.460938 C 25.652344 70.824219 25.683594 70.96875 25.683594 74.613281 C 25.683594 78.285156 25.652344 78.429688 25.15625 78.792969 C 24.621094 79.15625 24.652344 79.175781 26.019531 79.175781 C 27.386719 79.203125 27.410156 79.203125 26.90625 78.765625 C 26.398438 78.386719 26.378906 78.191406 26.449219 75.167969 L 26.519531 71.980469 L 29.496094 75.695312 C 31.105469 77.757812 32.542969 79.441406 32.664062 79.441406 C 32.78125 79.441406 32.875 77.570312 32.875 75.242188 C 32.875 71.253906 32.90625 71.042969 33.410156 70.558594 L 33.9375 70.082031 L 31.417969 70.082031 L 31.917969 70.75 C 32.378906 71.347656 32.398438 71.714844 32.347656 74.113281 L 32.28125 76.824219 L 29.640625 73.460938 L 27 70.128906 L 25.796875 70.105469 C 24.652344 70.082031 24.621094 70.105469 25.15625 70.460938 Z M 25.15625 70.460938 "/>
<path style=" stroke:none;fill-rule:nonzero;fill:rgb(0%,0%,0%);fill-opacity:1;" d="M 35.472656 70.460938 C 35.980469 70.824219 36 70.96875 36 74.640625 C 36 78.316406 35.980469 78.457031 35.472656 78.8125 C 34.96875 79.175781 35.042969 79.203125 36.71875 79.203125 C 38.398438 79.203125 38.472656 79.175781 37.96875 78.8125 C 37.511719 78.503906 37.441406 78.242188 37.441406 76.652344 L 37.441406 74.875 L 42 74.875 L 42 76.703125 C 42 78.167969 41.90625 78.601562 41.589844 78.863281 C 41.207031 79.15625 41.398438 79.175781 42.8125 79.203125 L 44.496094 79.203125 L 43.96875 78.71875 C 43.460938 78.242188 43.441406 78.019531 43.441406 74.640625 C 43.441406 71.347656 43.488281 70.988281 43.917969 70.558594 L 44.398438 70.082031 L 42.792969 70.082031 C 41.28125 70.082031 41.234375 70.105469 41.589844 70.511719 C 41.90625 70.84375 42 71.425781 42 72.671875 L 42 74.398438 L 37.441406 74.398438 L 37.441406 72.621094 C 37.441406 71.042969 37.511719 70.777344 37.96875 70.460938 C 38.472656 70.105469 38.398438 70.082031 36.71875 70.082031 C 35.042969 70.082031 34.96875 70.105469 35.472656 70.460938 Z M 35.472656 70.460938 "/>
<path style=" stroke:none;fill-rule:nonzero;fill:rgb(0%,0%,0%);fill-opacity:1;" d="M 48.839844 70.367188 C 48.621094 71.0625 48.574219 72.242188 48.765625 72.242188 C 48.863281 72.242188 48.957031 72.125 48.957031 72 C 48.957031 71.398438 50.160156 70.558594 51 70.558594 L 51.839844 70.558594 L 51.839844 74.496094 C 51.839844 77.683594 51.765625 78.480469 51.480469 78.71875 C 50.855469 79.222656 51.074219 79.316406 52.703125 79.25 C 54.285156 79.15625 54.285156 79.15625 53.78125 78.695312 C 53.304688 78.265625 53.28125 77.980469 53.28125 74.398438 L 53.28125 70.558594 L 54.191406 70.558594 C 55.128906 70.558594 56.160156 71.304688 56.160156 71.949219 C 56.160156 72.125 56.28125 72.242188 56.398438 72.242188 C 56.683594 72.242188 56.714844 71.875 56.496094 70.824219 L 56.347656 70.082031 L 52.632812 70.082031 C 49.894531 70.082031 48.90625 70.15625 48.839844 70.367188 Z M 48.839844 70.367188 "/>
<path style=" stroke:none;fill-rule:nonzero;fill:rgb(0%,0%,0%);fill-opacity:1;" d="M 57.792969 70.460938 C 58.296875 70.824219 58.316406 70.96875 58.316406 74.640625 C 58.316406 78.316406 58.296875 78.457031 57.792969 78.8125 C 57.285156 79.175781 57.359375 79.203125 59.042969 79.203125 L 60.8125 79.203125 L 60.285156 78.71875 C 59.832031 78.285156 59.757812 77.949219 59.757812 76.558594 L 59.757812 74.875 L 64.558594 74.875 L 64.558594 76.558594 C 64.558594 77.925781 64.460938 78.335938 64.082031 78.71875 L 63.601562 79.203125 L 65.328125 79.203125 C 66.957031 79.203125 67.03125 79.175781 66.527344 78.8125 C 66.019531 78.457031 66 78.316406 66 74.640625 C 66 70.96875 66.019531 70.824219 66.527344 70.460938 C 67.03125 70.105469 66.957031 70.082031 65.328125 70.082031 L 63.601562 70.082031 L 64.082031 70.558594 C 64.460938 70.949219 64.558594 71.347656 64.558594 72.71875 L 64.558594 74.425781 L 62.234375 74.347656 L 59.875 74.28125 L 59.808594 72.671875 C 59.757812 71.304688 59.808594 70.988281 60.242188 70.558594 L 60.71875 70.082031 L 58.988281 70.082031 C 57.359375 70.082031 57.285156 70.105469 57.792969 70.460938 Z M 57.792969 70.460938 "/>
<path style=" stroke:none;fill-rule:nonzero;fill:rgb(0%,0%,0%);fill-opacity:1;" d="M 89.664062 70.683594 C 90.285156 71.304688 90.285156 71.328125 90.191406 74.78125 C 90.125 78.125 90.09375 78.316406 89.542969 78.746094 L 88.988281 79.203125 L 90.386719 79.203125 C 91.777344 79.203125 91.796875 79.175781 91.25 78.765625 C 90.71875 78.359375 90.695312 78.242188 90.765625 75.144531 L 90.839844 71.949219 L 93.8125 75.695312 C 95.472656 77.757812 96.886719 79.441406 96.980469 79.441406 C 97.082031 79.441406 97.203125 77.496094 97.25 75.125 C 97.316406 71.160156 97.367188 70.796875 97.796875 70.460938 C 98.253906 70.128906 98.1875 70.105469 97.011719 70.082031 L 95.734375 70.082031 L 96.21875 70.703125 C 96.652344 71.253906 96.71875 71.683594 96.71875 73.949219 C 96.71875 75.386719 96.652344 76.558594 96.550781 76.558594 C 96.429688 76.539062 95.234375 75.09375 93.839844 73.316406 L 91.316406 70.105469 L 90.191406 70.082031 L 89.0625 70.082031 Z M 89.664062 70.683594 "/>
</g>
</svg>
